<svg xmlns="http://www.w3.org/2000/svg" xmlns:xlink="http://www.w3.org/1999/xlink" width="50" zoomAndPan="magnify" viewBox="0 0 37.5 37.499999" height="50" preserveAspectRatio="xMidYMid meet" version="1.2"><defs><clipPath id="24bdeda534"><path d="M 11.101562 11.101562 L 25.90625 11.101562 L 25.90625 25.90625 L 11.101562 25.90625 Z M 11.101562 11.101562 "/></clipPath></defs><g id="8366a4cdd4"><g clip-rule="nonzero" clip-path="url(#24bdeda534)"><path style=" stroke:none;fill-rule:nonzero;fill:#808080;fill-opacity:1;" d="M 25.90625 18.503906 C 25.90625 18.988281 25.855469 19.46875 25.761719 19.945312 C 25.667969 20.425781 25.527344 20.886719 25.339844 21.335938 C 25.15625 21.785156 24.925781 22.210938 24.65625 22.617188 C 24.386719 23.019531 24.082031 23.394531 23.738281 23.738281 C 23.394531 24.082031 23.019531 24.386719 22.617188 24.65625 C 22.210938 24.925781 21.785156 25.15625 21.335938 25.339844 C 20.886719 25.527344 20.425781 25.667969 19.945312 25.761719 C 19.46875 25.855469 18.988281 25.90625 18.503906 25.90625 C 18.015625 25.90625 17.535156 25.855469 17.058594 25.761719 C 16.582031 25.667969 16.121094 25.527344 15.671875 25.339844 C 15.222656 25.15625 14.796875 24.925781 14.390625 24.65625 C 13.988281 24.386719 13.613281 24.082031 13.269531 23.738281 C 12.925781 23.394531 12.621094 23.019531 12.347656 22.617188 C 12.078125 22.210938 11.851562 21.785156 11.664062 21.335938 C 11.480469 20.886719 11.339844 20.425781 11.246094 19.945312 C 11.148438 19.46875 11.101562 18.988281 11.101562 18.503906 C 11.101562 18.015625 11.148438 17.535156 11.246094 17.058594 C 11.339844 16.582031 11.480469 16.121094 11.664062 15.671875 C 11.851562 15.222656 12.078125 14.796875 12.347656 14.390625 C 12.621094 13.988281 12.925781 13.613281 13.269531 13.269531 C 13.613281 12.925781 13.988281 12.621094 14.390625 12.347656 C 14.796875 12.078125 15.222656 11.851562 15.671875 11.664062 C 16.121094 11.480469 16.582031 11.339844 17.058594 11.246094 C 17.535156 11.148438 18.015625 11.101562 18.503906 11.101562 C 18.988281 11.101562 19.46875 11.148438 19.945312 11.246094 C 20.425781 11.339844 20.886719 11.480469 21.335938 11.664062 C 21.785156 11.851562 22.210938 12.078125 22.617188 12.347656 C 23.019531 12.621094 23.394531 12.925781 23.738281 13.269531 C 24.082031 13.613281 24.386719 13.988281 24.65625 14.390625 C 24.925781 14.796875 25.15625 15.222656 25.339844 15.671875 C 25.527344 16.121094 25.667969 16.582031 25.761719 17.058594 C 25.855469 17.535156 25.90625 18.015625 25.90625 18.503906 Z M 25.90625 18.503906 "/></g></g></svg>