<svg xmlns="http://www.w3.org/2000/svg" xmlns:xlink="http://www.w3.org/1999/xlink" width="50" zoomAndPan="magnify" viewBox="0 0 37.5 37.499999" height="50" preserveAspectRatio="xMidYMid meet" version="1.2"><defs><clipPath id="8f66f0056d"><path d="M 11.101562 11.101562 L 25.90625 11.101562 L 25.90625 25.90625 L 11.101562 25.90625 Z M 11.101562 11.101562 "/></clipPath></defs><g id="a1ad2e2e43"><g clip-rule="nonzero" clip-path="url(#8f66f0056d)"><path style=" stroke:none;fill-rule:nonzero;fill:#808080;fill-opacity:1;" d="M 18.503906 11.101562 C 14.40625 11.101562 11.101562 14.40625 11.101562 18.503906 C 11.101562 22.597656 14.40625 25.90625 18.503906 25.90625 C 22.597656 25.90625 25.90625 22.597656 25.90625 18.503906 C 25.90625 14.40625 22.597656 11.101562 18.503906 11.101562 Z M 18.503906 25.246094 C 14.785156 25.246094 11.761719 22.21875 11.761719 18.503906 C 11.761719 14.785156 14.785156 11.761719 18.503906 11.761719 C 22.21875 11.761719 25.246094 14.785156 25.246094 18.503906 C 25.246094 22.21875 22.21875 25.246094 18.503906 25.246094 Z M 18.503906 25.246094 "/></g></g></svg>