<svg xmlns="http://www.w3.org/2000/svg" xmlns:xlink="http://www.w3.org/1999/xlink" width="50" zoomAndPan="magnify" viewBox="0 0 37.5 37.499999" height="50" preserveAspectRatio="xMidYMid meet" version="1.2"><defs><clipPath id="26b18ae80b"><path d="M 11.101562 11.859375 L 25.90625 11.859375 L 25.90625 25.183594 L 11.101562 25.183594 Z M 11.101562 11.859375 "/></clipPath></defs><g id="3a32936936"><g clip-rule="nonzero" clip-path="url(#26b18ae80b)"><path style=" stroke:none;fill-rule:evenodd;fill:#808080;fill-opacity:1;" d="M 17.074219 11.929688 L 24.90625 16.328125 C 24.976562 16.367188 25.03125 16.4375 25.050781 16.519531 C 25.050781 16.519531 25.78125 19.597656 25.628906 21.3125 C 25.597656 21.636719 25.535156 21.921875 25.441406 22.132812 C 25.347656 22.335938 25.222656 22.484375 25.070312 22.574219 C 24.902344 22.671875 24.703125 22.710938 24.464844 22.65625 C 24.203125 22.59375 23.960938 22.429688 23.742188 22.175781 C 23.46875 21.851562 23.230469 21.371094 23.03125 20.808594 C 22.296875 18.734375 22.054688 15.507812 22.054688 15.507812 C 22.050781 15.476562 22.054688 15.445312 22.0625 15.417969 L 17.035156 12.59375 L 16.277344 13.875 L 18.011719 14.925781 C 18.152344 15.011719 18.199219 15.195312 18.113281 15.335938 C 18.027344 15.480469 17.84375 15.523438 17.703125 15.4375 L 15.96875 14.390625 L 14.164062 17.433594 L 21.457031 15.410156 L 21.457031 15.554688 C 21.457031 15.554688 21.710938 18.875 22.464844 21.007812 L 22.476562 21.035156 L 20.164062 24.929688 C 20.078125 25.070312 19.898438 25.117188 19.757812 25.039062 L 11.921875 20.636719 C 11.851562 20.597656 11.800781 20.53125 11.78125 20.453125 C 11.757812 20.375 11.769531 20.292969 11.8125 20.222656 L 14.582031 15.554688 L 13 14.59375 C 12.179688 14.097656 11.574219 13.476562 11.363281 13.003906 C 11.234375 12.714844 11.238281 12.457031 11.34375 12.265625 C 11.453125 12.066406 11.667969 11.929688 11.984375 11.898438 C 12.484375 11.847656 13.308594 12.078125 14.132812 12.578125 L 15.761719 13.566406 L 16.667969 12.039062 C 16.753906 11.898438 16.933594 11.847656 17.074219 11.929688 Z M 14.890625 15.039062 L 13.308594 14.082031 C 12.707031 13.71875 12.230469 13.289062 11.996094 12.917969 C 11.933594 12.816406 11.886719 12.726562 11.871094 12.640625 C 11.863281 12.609375 11.855469 12.578125 11.867188 12.554688 C 11.886719 12.523438 11.925781 12.515625 11.96875 12.507812 C 12.039062 12.492188 12.121094 12.488281 12.210938 12.492188 C 12.632812 12.515625 13.222656 12.730469 13.824219 13.089844 L 15.457031 14.082031 L 14.890625 15.039062 "/></g></g></svg>