<svg xmlns="http://www.w3.org/2000/svg" xmlns:xlink="http://www.w3.org/1999/xlink" width="50" zoomAndPan="magnify" viewBox="0 0 37.5 37.499999" height="50" preserveAspectRatio="xMidYMid meet" version="1.2"><g id="a0ec86c34e"><path style="fill:none;stroke-width:1;stroke-linecap:butt;stroke-linejoin:miter;stroke:#808080;stroke-opacity:1;stroke-miterlimit:4;" d="M 3.751041 0.499569 L 26.956323 0.499569 " transform="matrix(0.523352,-0.523352,0.523352,0.523352,10.205122,26.275884)"/><path style="fill:none;stroke-width:1;stroke-linecap:round;stroke-linejoin:round;stroke:#808080;stroke-opacity:1;stroke-miterlimit:4;" d="M 0.496778 0.499569 C 0.496778 -0.328925 1.16853 -1.000676 1.997023 -1.000676 C 2.825517 -1.000676 3.497268 -0.328925 3.497268 0.499569 C 3.497268 1.328062 2.825517 1.999814 1.997023 1.999814 C 1.16853 1.999814 0.496778 1.328062 0.496778 0.499569 " transform="matrix(0.523352,-0.523352,0.523352,0.523352,10.205122,26.275884)"/><path style="fill:none;stroke-width:1;stroke-linecap:round;stroke-linejoin:round;stroke:#808080;stroke-opacity:1;stroke-miterlimit:4;" d="M 30.210586 0.499569 C 30.210586 1.328062 29.538834 1.999814 28.710341 1.999814 C 27.881847 1.999814 27.210096 1.328062 27.210096 0.499569 C 27.210096 -0.328925 27.881847 -1.000676 28.710341 -1.000676 C 29.538834 -1.000676 30.210586 -0.328925 30.210586 0.499569 " transform="matrix(0.523352,-0.523352,0.523352,0.523352,10.205122,26.275884)"/></g></svg>