<svg xmlns="http://www.w3.org/2000/svg" xmlns:xlink="http://www.w3.org/1999/xlink" width="50" zoomAndPan="magnify" viewBox="0 0 37.5 37.499999" height="50" preserveAspectRatio="xMidYMid meet" version="1.2"><defs><clipPath id="c31adbf236"><path d="M 11.101562 10.066406 L 25.90625 10.066406 L 25.90625 24.867188 L 11.101562 24.867188 Z M 11.101562 10.066406 "/></clipPath></defs><g id="7734fa8333"><g clip-rule="nonzero" clip-path="url(#c31adbf236)"><path style=" stroke:none;fill-rule:nonzero;fill:#808080;fill-opacity:1;" d="M 23.441406 10.324219 C 23.320312 10.203125 23.175781 10.140625 23 10.140625 C 22.828125 10.140625 22.683594 10.203125 22.558594 10.324219 L 13.65625 19.175781 C 13.609375 19.222656 13.566406 19.277344 13.539062 19.335938 L 11.203125 23.957031 C 11.152344 24.054688 11.128906 24.15625 11.136719 24.265625 C 11.140625 24.375 11.171875 24.472656 11.226562 24.566406 C 11.285156 24.660156 11.359375 24.730469 11.453125 24.785156 C 11.550781 24.839844 11.652344 24.863281 11.757812 24.863281 C 11.859375 24.867188 11.953125 24.84375 12.042969 24.796875 L 16.5625 22.492188 C 16.621094 22.460938 16.675781 22.421875 16.722656 22.375 L 25.664062 13.429688 C 25.785156 13.308594 25.847656 13.160156 25.847656 12.988281 C 25.847656 12.816406 25.785156 12.667969 25.664062 12.546875 Z M 12.949219 22.585938 L 13.328125 23.082031 L 12.480469 23.519531 Z M 16.089844 21.671875 L 14.179688 22.648438 L 13.421875 21.648438 L 14.355469 19.804688 L 20.171875 14.023438 L 21.957031 15.808594 Z M 22.621094 15.148438 L 20.835938 13.363281 L 23 11.210938 L 24.777344 12.988281 Z M 22.621094 15.148438 "/></g></g></svg>