<svg xmlns="http://www.w3.org/2000/svg" xmlns:xlink="http://www.w3.org/1999/xlink" width="50" zoomAndPan="magnify" viewBox="0 0 37.5 37.499999" height="50" preserveAspectRatio="xMidYMid meet" version="1.2"><defs><clipPath id="410635758f"><path d="M 11.101562 15.339844 L 25.90625 15.339844 L 25.90625 25.703125 L 11.101562 25.703125 Z M 11.101562 15.339844 "/></clipPath></defs><g id="afcba6e147"><g clip-rule="nonzero" clip-path="url(#410635758f)"><path style=" stroke:none;fill-rule:nonzero;fill:#808080;fill-opacity:1;" d="M 20.585938 15.742188 L 25.570312 19.980469 C 25.90625 20.269531 25.90625 20.792969 25.570312 21.0625 L 20.585938 25.300781 C 20.125 25.699219 19.410156 25.363281 19.410156 24.761719 L 19.410156 21.902344 L 11.964844 21.902344 C 11.566406 21.902344 11.25 21.585938 11.25 21.1875 L 11.25 19.839844 C 11.25 19.441406 11.566406 19.125 11.964844 19.125 L 19.410156 19.125 L 19.410156 16.28125 C 19.410156 15.679688 20.125 15.34375 20.585938 15.742188 Z M 20.585938 15.742188 "/></g></g></svg>