<svg xmlns="http://www.w3.org/2000/svg" xmlns:xlink="http://www.w3.org/1999/xlink" width="50" zoomAndPan="magnify" viewBox="0 0 37.5 37.499999" height="50" preserveAspectRatio="xMidYMid meet" version="1.2"><defs><clipPath id="147cc47be3"><path d="M 11.84375 11.84375 L 25.164062 11.84375 L 25.164062 25.164062 L 11.84375 25.164062 Z M 11.84375 11.84375 "/></clipPath><clipPath id="e8441a334c"><path d="M 11.101562 13.324219 L 11.101562 23.683594 C 11.101562 24.910156 12.097656 25.90625 13.324219 25.90625 L 23.683594 25.90625 C 24.910156 25.90625 25.90625 24.910156 25.90625 23.683594 L 25.90625 13.324219 C 25.90625 12.097656 24.910156 11.101562 23.683594 11.101562 L 13.324219 11.101562 C 12.097656 11.101562 11.101562 12.097656 11.101562 13.324219 Z M 11.101562 13.324219 "/></clipPath><clipPath id="5f2c20057b"><path d="M 14.210938 11.988281 L 22.796875 11.988281 C 24.023438 11.988281 25.015625 12.984375 25.015625 14.210938 L 25.015625 22.796875 C 25.015625 24.023438 24.023438 25.015625 22.796875 25.015625 L 14.210938 25.015625 C 12.984375 25.015625 11.988281 24.023438 11.988281 22.796875 L 11.988281 14.210938 C 11.988281 12.984375 12.984375 11.988281 14.210938 11.988281 Z M 14.210938 11.988281 "/></clipPath><clipPath id="66adaa7c83"><path d="M 11.101562 11.101562 L 25.90625 11.101562 L 25.90625 25.90625 L 11.101562 25.90625 Z M 11.101562 11.101562 "/></clipPath><clipPath id="99a134d939"><path d="M 11.101562 13.324219 L 11.101562 23.683594 C 11.101562 24.910156 12.097656 25.90625 13.324219 25.90625 L 23.683594 25.90625 C 24.910156 25.90625 25.90625 24.910156 25.90625 23.683594 L 25.90625 13.324219 C 25.90625 12.097656 24.910156 11.101562 23.683594 11.101562 L 13.324219 11.101562 C 12.097656 11.101562 11.101562 12.097656 11.101562 13.324219 Z M 11.101562 13.324219 "/></clipPath><clipPath id="0c59497528"><path d="M 11.101562 13.324219 L 11.101562 23.683594 C 11.101562 24.910156 12.097656 25.90625 13.324219 25.90625 L 23.683594 25.90625 C 24.910156 25.90625 25.90625 24.910156 25.90625 23.683594 L 25.90625 13.324219 C 25.90625 12.097656 24.910156 11.101562 23.683594 11.101562 L 13.324219 11.101562 C 12.097656 11.101562 11.101562 12.097656 11.101562 13.324219 Z M 11.101562 13.324219 "/></clipPath></defs><g id="c6b40bbdd4"><g clip-rule="nonzero" clip-path="url(#147cc47be3)"><g clip-rule="nonzero" clip-path="url(#e8441a334c)"><g clip-rule="nonzero" clip-path="url(#5f2c20057b)"><path style=" stroke:none;fill-rule:nonzero;fill:#808080;fill-opacity:1;" d="M 24.140625 11.101562 L 12.867188 11.101562 C 12.632812 11.101562 12.40625 11.148438 12.191406 11.238281 C 11.976562 11.328125 11.785156 11.453125 11.621094 11.621094 C 11.453125 11.785156 11.328125 11.976562 11.238281 12.191406 C 11.148438 12.40625 11.101562 12.632812 11.101562 12.867188 L 11.101562 24.140625 C 11.101562 24.375 11.148438 24.597656 11.238281 24.816406 C 11.328125 25.03125 11.453125 25.222656 11.621094 25.386719 C 11.785156 25.550781 11.976562 25.679688 12.191406 25.769531 C 12.40625 25.859375 12.632812 25.902344 12.867188 25.90625 L 24.140625 25.90625 C 24.375 25.902344 24.597656 25.859375 24.816406 25.769531 C 25.03125 25.679688 25.222656 25.550781 25.386719 25.386719 C 25.550781 25.222656 25.679688 25.03125 25.769531 24.816406 C 25.859375 24.597656 25.902344 24.375 25.90625 24.140625 L 25.90625 12.867188 C 25.902344 12.632812 25.859375 12.40625 25.769531 12.191406 C 25.679688 11.976562 25.550781 11.785156 25.386719 11.621094 C 25.222656 11.453125 25.03125 11.328125 24.816406 11.238281 C 24.597656 11.148438 24.375 11.101562 24.140625 11.101562 Z M 25.675781 24.140625 C 25.675781 24.34375 25.636719 24.539062 25.558594 24.726562 C 25.480469 24.917969 25.371094 25.082031 25.226562 25.226562 C 25.082031 25.371094 24.917969 25.480469 24.726562 25.558594 C 24.539062 25.636719 24.34375 25.675781 24.140625 25.675781 L 12.867188 25.675781 C 12.660156 25.675781 12.464844 25.636719 12.277344 25.558594 C 12.089844 25.480469 11.925781 25.371094 11.78125 25.226562 C 11.636719 25.082031 11.523438 24.917969 11.445312 24.726562 C 11.367188 24.539062 11.328125 24.34375 11.328125 24.140625 L 11.328125 12.867188 C 11.328125 12.660156 11.367188 12.464844 11.445312 12.277344 C 11.523438 12.089844 11.636719 11.925781 11.78125 11.78125 C 11.925781 11.636719 12.089844 11.523438 12.277344 11.445312 C 12.464844 11.367188 12.660156 11.328125 12.867188 11.328125 L 24.140625 11.328125 C 24.34375 11.328125 24.539062 11.367188 24.726562 11.445312 C 24.917969 11.523438 25.082031 11.636719 25.226562 11.78125 C 25.371094 11.925781 25.480469 12.089844 25.558594 12.277344 C 25.636719 12.464844 25.675781 12.660156 25.675781 12.867188 Z M 25.675781 24.140625 "/></g></g></g><g clip-rule="nonzero" clip-path="url(#66adaa7c83)"><g clip-rule="nonzero" clip-path="url(#99a134d939)"><g clip-rule="nonzero" clip-path="url(#0c59497528)"><path style="fill:none;stroke-width:2;stroke-linecap:butt;stroke-linejoin:miter;stroke:#808080;stroke-opacity:1;stroke-miterlimit:4;" d="M -0.000555206 3.002501 L -0.000555206 16.999169 C -0.000555206 18.656391 1.345278 20.002225 3.002501 20.002225 L 16.999168 20.002225 C 18.656391 20.002225 20.002224 18.656391 20.002224 16.999169 L 20.002224 3.002501 C 20.002224 1.345279 18.656391 -0.000554531 16.999168 -0.000554531 L 3.002501 -0.000554531 C 1.345278 -0.000554531 -0.000555206 1.345279 -0.000555206 3.002501 Z M -0.000555206 3.002501 " transform="matrix(0.740132,0,0,0.740132,11.101973,11.101973)"/></g></g></g></g></svg>