<svg xmlns="http://www.w3.org/2000/svg" xmlns:xlink="http://www.w3.org/1999/xlink" width="50" zoomAndPan="magnify" viewBox="0 0 37.5 37.499999" height="50" preserveAspectRatio="xMidYMid meet" version="1.2"><defs><clipPath id="6afa180b79"><path d="M 11.101562 11.101562 L 25.90625 11.101562 L 25.90625 25.90625 L 11.101562 25.90625 Z M 11.101562 11.101562 "/></clipPath><clipPath id="b3e1d84fb4"><path d="M 11.101562 13.324219 L 11.101562 23.683594 C 11.101562 24.910156 12.097656 25.90625 13.324219 25.90625 L 23.683594 25.90625 C 24.910156 25.90625 25.90625 24.910156 25.90625 23.683594 L 25.90625 13.324219 C 25.90625 12.097656 24.910156 11.101562 23.683594 11.101562 L 13.324219 11.101562 C 12.097656 11.101562 11.101562 12.097656 11.101562 13.324219 Z M 11.101562 13.324219 "/></clipPath></defs><g id="1051f1221f"><g clip-rule="nonzero" clip-path="url(#6afa180b79)"><g clip-rule="nonzero" clip-path="url(#b3e1d84fb4)"><path style=" stroke:none;fill-rule:nonzero;fill:#808080;fill-opacity:1;" d="M 25.726562 18.628906 C 25.644531 18.757812 25.511719 18.835938 25.378906 18.910156 C 25.433594 18.992188 25.433594 19.101562 25.410156 19.195312 C 25.382812 19.289062 25.339844 19.378906 25.3125 19.476562 C 25.289062 19.570312 25.292969 19.695312 25.347656 19.777344 C 25.273438 19.78125 25.210938 19.84375 25.179688 19.910156 C 25.148438 19.980469 25.140625 20.058594 25.136719 20.136719 C 25.128906 20.210938 25.121094 20.289062 25.078125 20.355469 L 25.082031 20.355469 C 25.191406 20.398438 25.304688 20.445312 25.382812 20.535156 C 25.402344 20.558594 25.421875 20.589844 25.433594 20.621094 C 25.460938 20.695312 25.449219 20.777344 25.421875 20.851562 C 25.390625 20.921875 25.34375 20.984375 25.296875 21.050781 C 25.355469 21.109375 25.457031 21.179688 25.484375 21.261719 C 25.503906 21.3125 25.503906 21.371094 25.511719 21.425781 C 25.539062 21.617188 25.640625 21.800781 25.636719 21.996094 C 25.636719 22.015625 25.621094 22.035156 25.605469 22.042969 C 25.585938 22.054688 25.566406 22.058594 25.550781 22.070312 C 25.488281 22.101562 25.457031 22.167969 25.445312 22.238281 C 25.429688 22.304688 25.433594 22.375 25.417969 22.441406 C 25.390625 22.578125 25.285156 22.6875 25.195312 22.792969 C 25.242188 22.855469 25.292969 22.917969 25.320312 22.992188 C 25.351562 23.066406 25.355469 23.15625 25.3125 23.222656 C 25.261719 23.304688 25.136719 23.34375 25.042969 23.367188 C 25.113281 23.4375 25.183594 23.511719 25.199219 23.605469 C 25.207031 23.671875 25.1875 23.738281 25.195312 23.804688 C 25.203125 23.863281 25.234375 23.914062 25.269531 23.960938 C 25.308594 24.003906 25.351562 24.039062 25.398438 24.078125 C 25.316406 24.199219 25.324219 24.371094 25.363281 24.511719 C 25.398438 24.652344 25.46875 24.785156 25.503906 24.925781 C 25.554688 25.109375 25.550781 25.300781 25.496094 25.480469 C 25.253906 25.539062 24.972656 25.539062 24.738281 25.457031 C 24.628906 25.421875 24.523438 25.371094 24.414062 25.34375 C 24.300781 25.320312 24.164062 25.324219 24.074219 25.394531 C 24.03125 25.324219 23.96875 25.269531 23.894531 25.242188 C 23.808594 25.207031 23.710938 25.203125 23.621094 25.191406 C 23.527344 25.175781 23.425781 25.136719 23.375 25.058594 C 23.351562 25.15625 23.304688 25.246094 23.242188 25.324219 C 23.21875 25.347656 23.191406 25.375 23.15625 25.382812 C 23.128906 25.386719 23.101562 25.375 23.078125 25.367188 C 22.984375 25.328125 22.890625 25.273438 22.808594 25.214844 C 22.757812 25.210938 22.714844 25.246094 22.679688 25.28125 C 22.648438 25.316406 22.617188 25.355469 22.578125 25.382812 C 22.46875 25.449219 22.328125 25.398438 22.210938 25.441406 C 22.113281 25.480469 22.035156 25.570312 21.980469 25.660156 C 21.949219 25.628906 21.902344 25.621094 21.859375 25.617188 C 21.816406 25.613281 21.769531 25.613281 21.726562 25.605469 C 21.664062 25.589844 21.605469 25.550781 21.542969 25.53125 C 21.457031 25.503906 21.359375 25.511719 21.269531 25.484375 C 21.167969 25.449219 21.089844 25.371094 21.015625 25.296875 C 20.925781 25.367188 20.882812 25.382812 20.773438 25.425781 C 20.730469 25.441406 20.683594 25.457031 20.636719 25.445312 C 20.601562 25.4375 20.570312 25.410156 20.542969 25.382812 C 20.460938 25.304688 20.394531 25.199219 20.351562 25.097656 C 20.234375 25.15625 20.085938 25.113281 19.960938 25.152344 C 19.871094 25.179688 19.792969 25.253906 19.761719 25.34375 C 19.699219 25.28125 19.597656 25.28125 19.511719 25.308594 C 19.425781 25.332031 19.351562 25.382812 19.265625 25.40625 C 19.152344 25.441406 19.027344 25.4375 18.917969 25.386719 L 18.917969 25.363281 C 18.875 25.519531 18.761719 25.65625 18.617188 25.726562 C 18.578125 25.75 18.53125 25.761719 18.484375 25.757812 C 18.449219 25.75 18.414062 25.730469 18.382812 25.707031 C 18.269531 25.625 18.171875 25.519531 18.097656 25.398438 C 17.96875 25.421875 17.835938 25.445312 17.714844 25.390625 C 17.652344 25.367188 17.601562 25.320312 17.539062 25.296875 C 17.4375 25.261719 17.320312 25.285156 17.242188 25.355469 C 17.226562 25.28125 17.160156 25.21875 17.089844 25.1875 C 17.019531 25.152344 16.941406 25.144531 16.863281 25.136719 C 16.789062 25.128906 16.710938 25.121094 16.640625 25.089844 C 16.628906 25.199219 16.582031 25.285156 16.507812 25.371094 C 16.476562 25.40625 16.4375 25.4375 16.394531 25.441406 C 16.363281 25.445312 16.335938 25.441406 16.304688 25.433594 C 16.203125 25.40625 16.105469 25.359375 16.019531 25.296875 C 15.878906 25.34375 15.796875 25.492188 15.648438 25.523438 C 15.582031 25.539062 15.507812 25.527344 15.441406 25.539062 C 15.386719 25.550781 15.339844 25.582031 15.285156 25.597656 C 15.191406 25.625 15.085938 25.609375 15.003906 25.660156 C 14.960938 25.5625 14.855469 25.480469 14.75 25.449219 C 14.6875 25.433594 14.625 25.429688 14.5625 25.417969 C 14.441406 25.394531 14.3125 25.300781 14.238281 25.203125 C 14.183594 25.253906 14.175781 25.261719 14.113281 25.296875 C 14.046875 25.335938 13.972656 25.355469 13.902344 25.347656 C 13.835938 25.335938 13.777344 25.296875 13.734375 25.246094 C 13.691406 25.195312 13.65625 25.113281 13.648438 25.046875 C 13.59375 25.132812 13.492188 25.1875 13.386719 25.199219 C 13.316406 25.207031 13.246094 25.195312 13.175781 25.207031 C 13.078125 25.226562 12.972656 25.308594 12.933594 25.398438 C 12.847656 25.335938 12.730469 25.328125 12.625 25.34375 C 12.453125 25.367188 12.292969 25.441406 12.125 25.484375 C 11.933594 25.539062 11.664062 25.539062 11.511719 25.480469 C 11.457031 25.300781 11.457031 25.109375 11.503906 24.925781 C 11.542969 24.785156 11.609375 24.65625 11.648438 24.511719 C 11.683594 24.371094 11.691406 24.199219 11.613281 24.078125 C 11.65625 24.039062 11.703125 24.003906 11.738281 23.960938 C 11.777344 23.914062 11.804688 23.863281 11.8125 23.804688 C 11.820312 23.738281 11.800781 23.671875 11.808594 23.605469 C 11.824219 23.511719 11.898438 23.4375 11.964844 23.371094 C 11.871094 23.34375 11.75 23.304688 11.695312 23.222656 C 11.65625 23.15625 11.660156 23.066406 11.6875 22.996094 C 11.714844 22.921875 11.765625 22.855469 11.816406 22.796875 C 11.722656 22.6875 11.617188 22.578125 11.589844 22.441406 C 11.574219 22.375 11.578125 22.304688 11.566406 22.238281 C 11.550781 22.167969 11.519531 22.101562 11.457031 22.070312 C 11.441406 22.058594 11.421875 22.054688 11.40625 22.042969 C 11.386719 22.035156 11.375 22.015625 11.371094 21.996094 C 11.367188 21.800781 11.46875 21.617188 11.496094 21.425781 C 11.503906 21.371094 11.503906 21.3125 11.523438 21.261719 C 11.550781 21.179688 11.652344 21.109375 11.714844 21.050781 C 11.664062 20.988281 11.617188 20.921875 11.589844 20.851562 C 11.558594 20.777344 11.546875 20.695312 11.574219 20.621094 C 11.585938 20.589844 11.605469 20.558594 11.628906 20.535156 C 11.703125 20.445312 11.816406 20.398438 11.925781 20.355469 L 11.929688 20.355469 C 11.890625 20.289062 11.878906 20.210938 11.871094 20.136719 C 11.867188 20.058594 11.859375 19.980469 11.832031 19.910156 C 11.800781 19.84375 11.734375 19.78125 11.660156 19.777344 C 11.714844 19.695312 11.722656 19.570312 11.695312 19.476562 C 11.671875 19.378906 11.625 19.289062 11.601562 19.195312 C 11.574219 19.101562 11.574219 18.992188 11.628906 18.910156 C 11.496094 18.835938 11.363281 18.761719 11.285156 18.628906 C 11.253906 18.582031 11.234375 18.523438 11.242188 18.46875 C 11.25 18.425781 11.277344 18.386719 11.300781 18.351562 C 11.347656 18.296875 11.394531 18.246094 11.453125 18.203125 C 11.488281 18.171875 11.527344 18.144531 11.558594 18.109375 C 11.585938 18.070312 11.605469 18.019531 11.589844 17.976562 C 11.582031 17.898438 11.582031 17.808594 11.605469 17.738281 C 11.632812 17.65625 11.691406 17.589844 11.714844 17.507812 C 11.746094 17.417969 11.722656 17.304688 11.660156 17.234375 C 11.703125 17.214844 11.75 17.195312 11.78125 17.160156 C 11.8125 17.125 11.824219 17.082031 11.835938 17.039062 C 11.867188 16.921875 11.878906 16.800781 11.890625 16.679688 C 11.890625 16.667969 11.890625 16.65625 11.882812 16.644531 C 11.878906 16.632812 11.839844 16.625 11.832031 16.632812 C 11.695312 16.601562 11.585938 16.484375 11.5625 16.347656 C 11.539062 16.210938 11.601562 16.066406 11.714844 15.988281 C 11.617188 15.925781 11.546875 15.816406 11.507812 15.703125 C 11.472656 15.589844 11.460938 15.46875 11.445312 15.351562 C 11.425781 15.234375 11.398438 15.117188 11.339844 15.015625 C 11.433594 14.945312 11.535156 14.875 11.566406 14.765625 C 11.589844 14.683594 11.585938 14.597656 11.605469 14.515625 C 11.632812 14.40625 11.707031 14.304688 11.804688 14.246094 C 11.757812 14.183594 11.707031 14.101562 11.683594 14.027344 C 11.660156 13.953125 11.660156 13.867188 11.699219 13.796875 C 11.75 13.710938 11.867188 13.667969 11.964844 13.644531 L 11.96875 13.644531 C 11.917969 13.609375 11.921875 13.613281 11.886719 13.5625 C 11.84375 13.503906 11.824219 13.429688 11.8125 13.355469 C 11.804688 13.285156 11.796875 13.210938 11.777344 13.136719 C 11.78125 13.089844 11.753906 13.027344 11.710938 13 C 11.683594 12.984375 11.644531 12.972656 11.632812 12.941406 C 11.625 12.921875 11.628906 12.898438 11.640625 12.878906 C 11.648438 12.863281 11.671875 12.847656 11.6875 12.835938 C 11.683594 12.632812 11.601562 12.441406 11.546875 12.25 C 11.484375 12.007812 11.464844 11.757812 11.492188 11.511719 C 11.644531 11.453125 11.933594 11.46875 12.128906 11.519531 C 12.292969 11.5625 12.453125 11.636719 12.625 11.664062 C 12.730469 11.675781 12.847656 11.667969 12.933594 11.605469 C 12.976562 11.695312 13.078125 11.78125 13.175781 11.796875 C 13.246094 11.808594 13.320312 11.800781 13.390625 11.804688 C 13.492188 11.816406 13.59375 11.871094 13.648438 11.960938 C 13.660156 11.894531 13.691406 11.808594 13.734375 11.757812 C 13.777344 11.707031 13.835938 11.667969 13.902344 11.660156 C 13.976562 11.648438 14.050781 11.671875 14.113281 11.707031 C 14.175781 11.742188 14.1875 11.753906 14.238281 11.800781 C 14.3125 11.703125 14.441406 11.613281 14.5625 11.585938 C 14.625 11.574219 14.691406 11.574219 14.75 11.554688 C 14.855469 11.523438 14.960938 11.445312 15.007812 11.34375 C 15.089844 11.394531 15.195312 11.378906 15.289062 11.410156 C 15.339844 11.425781 15.386719 11.453125 15.441406 11.464844 C 15.511719 11.480469 15.582031 11.464844 15.652344 11.480469 C 15.796875 11.511719 15.878906 11.660156 16.019531 11.707031 C 16.105469 11.644531 16.203125 11.597656 16.308594 11.570312 C 16.335938 11.5625 16.367188 11.558594 16.394531 11.5625 C 16.441406 11.570312 16.476562 11.601562 16.507812 11.632812 C 16.582031 11.71875 16.628906 11.804688 16.640625 11.917969 C 16.710938 11.886719 16.789062 11.875 16.867188 11.867188 C 16.941406 11.859375 17.019531 11.851562 17.09375 11.820312 C 17.164062 11.789062 17.226562 11.726562 17.242188 11.648438 C 17.320312 11.722656 17.441406 11.746094 17.539062 11.707031 C 17.601562 11.683594 17.65625 11.640625 17.714844 11.613281 C 17.835938 11.5625 17.96875 11.582031 18.097656 11.605469 C 18.171875 11.484375 18.269531 11.378906 18.382812 11.296875 C 18.414062 11.277344 18.449219 11.253906 18.488281 11.25 C 18.53125 11.242188 18.578125 11.257812 18.617188 11.277344 C 18.765625 11.347656 18.878906 11.484375 18.917969 11.640625 L 18.917969 11.617188 C 19.027344 11.570312 19.15625 11.5625 19.269531 11.597656 C 19.351562 11.625 19.429688 11.671875 19.511719 11.699219 C 19.597656 11.722656 19.699219 11.722656 19.761719 11.664062 C 19.792969 11.75 19.871094 11.824219 19.960938 11.855469 C 20.085938 11.894531 20.234375 11.847656 20.351562 11.910156 C 20.398438 11.804688 20.460938 11.703125 20.542969 11.621094 C 20.570312 11.59375 20.601562 11.566406 20.636719 11.558594 C 20.683594 11.546875 20.730469 11.5625 20.773438 11.578125 C 20.882812 11.621094 20.925781 11.636719 21.019531 11.707031 C 21.09375 11.632812 21.171875 11.554688 21.269531 11.523438 C 21.359375 11.492188 21.457031 11.5 21.546875 11.472656 C 21.609375 11.453125 21.664062 11.414062 21.730469 11.402344 C 21.773438 11.390625 21.816406 11.394531 21.859375 11.390625 C 21.902344 11.386719 21.949219 11.375 21.980469 11.347656 C 22.035156 11.433594 22.113281 11.527344 22.210938 11.5625 C 22.328125 11.609375 22.472656 11.554688 22.578125 11.621094 C 22.621094 11.648438 22.648438 11.691406 22.683594 11.726562 C 22.714844 11.761719 22.761719 11.792969 22.808594 11.789062 C 22.890625 11.734375 22.984375 11.675781 23.078125 11.640625 C 23.105469 11.628906 23.128906 11.621094 23.15625 11.625 C 23.191406 11.628906 23.21875 11.65625 23.242188 11.683594 C 23.308594 11.757812 23.351562 11.851562 23.375 11.949219 C 23.425781 11.871094 23.527344 11.832031 23.621094 11.816406 C 23.710938 11.800781 23.808594 11.800781 23.894531 11.765625 C 23.96875 11.734375 24.035156 11.679688 24.074219 11.613281 C 24.167969 11.679688 24.300781 11.683594 24.414062 11.660156 C 24.527344 11.636719 24.628906 11.585938 24.738281 11.546875 C 24.972656 11.46875 25.277344 11.453125 25.519531 11.511719 C 25.546875 11.757812 25.527344 12.007812 25.460938 12.246094 C 25.410156 12.441406 25.328125 12.632812 25.320312 12.835938 C 25.339844 12.84375 25.359375 12.863281 25.371094 12.878906 C 25.382812 12.898438 25.386719 12.921875 25.378906 12.941406 C 25.363281 12.972656 25.328125 12.984375 25.300781 13 C 25.257812 13.027344 25.230469 13.089844 25.234375 13.136719 C 25.214844 13.210938 25.207031 13.28125 25.195312 13.355469 C 25.183594 13.429688 25.167969 13.503906 25.125 13.5625 C 25.089844 13.613281 25.089844 13.609375 25.042969 13.644531 L 25.046875 13.644531 C 25.144531 13.667969 25.257812 13.710938 25.3125 13.796875 C 25.351562 13.867188 25.351562 13.953125 25.328125 14.027344 C 25.304688 14.101562 25.253906 14.183594 25.207031 14.246094 C 25.304688 14.304688 25.378906 14.40625 25.40625 14.515625 C 25.425781 14.597656 25.417969 14.683594 25.441406 14.765625 C 25.472656 14.875 25.578125 14.945312 25.671875 15.015625 C 25.609375 15.117188 25.585938 15.234375 25.566406 15.351562 C 25.550781 15.46875 25.539062 15.589844 25.5 15.703125 C 25.464844 15.8125 25.394531 15.925781 25.296875 15.988281 C 25.410156 16.066406 25.472656 16.210938 25.449219 16.347656 C 25.425781 16.484375 25.3125 16.601562 25.179688 16.632812 C 25.171875 16.625 25.132812 16.632812 25.125 16.644531 C 25.121094 16.65625 25.121094 16.667969 25.121094 16.679688 C 25.132812 16.800781 25.144531 16.921875 25.175781 17.039062 C 25.1875 17.082031 25.199219 17.125 25.230469 17.15625 C 25.261719 17.195312 25.308594 17.214844 25.351562 17.234375 C 25.289062 17.304688 25.265625 17.414062 25.292969 17.507812 C 25.320312 17.589844 25.378906 17.65625 25.402344 17.738281 C 25.429688 17.808594 25.429688 17.898438 25.421875 17.976562 C 25.40625 18.019531 25.421875 18.070312 25.453125 18.109375 C 25.480469 18.144531 25.523438 18.171875 25.558594 18.203125 C 25.613281 18.246094 25.664062 18.296875 25.707031 18.351562 C 25.734375 18.386719 25.757812 18.425781 25.765625 18.46875 C 25.777344 18.523438 25.753906 18.582031 25.726562 18.628906 Z M 25.726562 18.628906 "/><path style=" stroke:none;fill-rule:nonzero;fill:#808080;fill-opacity:1;" d="M 11.101562 11.101562 L 25.90625 11.101562 L 25.90625 25.90625 L 11.101562 25.90625 Z M 11.101562 11.101562 "/></g></g></g></svg>