<svg xmlns="http://www.w3.org/2000/svg" xmlns:xlink="http://www.w3.org/1999/xlink" width="50" zoomAndPan="magnify" viewBox="0 0 37.5 37.499999" height="50" preserveAspectRatio="xMidYMid meet" version="1.2"><defs><clipPath id="2d42d12f27"><path d="M 11.101562 13.269531 L 25.90625 13.269531 L 25.90625 23.628906 L 11.101562 23.628906 Z M 11.101562 13.269531 "/></clipPath></defs><g id="d6c0ac1f12"><g clip-rule="nonzero" clip-path="url(#2d42d12f27)"><path style=" stroke:none;fill-rule:nonzero;fill:#808080;fill-opacity:1;" d="M 16.421875 13.671875 L 11.433594 17.910156 C 11.101562 18.195312 11.101562 18.71875 11.433594 18.988281 L 16.421875 23.230469 C 16.882812 23.625 17.597656 23.292969 17.597656 22.6875 L 17.597656 19.832031 L 25.042969 19.832031 C 25.441406 19.832031 25.757812 19.511719 25.757812 19.117188 L 25.757812 17.765625 C 25.757812 17.371094 25.441406 17.050781 25.042969 17.050781 L 17.597656 17.050781 L 17.597656 14.210938 C 17.597656 13.605469 16.882812 13.273438 16.421875 13.671875 Z M 16.421875 13.671875 "/></g></g></svg>